<?xml version="1.0" encoding="UTF-8"?>
<svg id="Layer_1" xmlns="http://www.w3.org/2000/svg" version="1.1" viewBox="0 0 776.2 1115.9">
  <!-- Generator: Adobe Illustrator 29.7.1, SVG Export Plug-In . SVG Version: 2.1.1 Build 8)  -->
  <path d="M400.3,218c1.8,2.2,2.3,7.2,1.9,10.8-1.3,28.1-7.1,56.3-7.1,84.6,2.1,23-5.4,50.1,7.8,70.6,14.7,23.6,47.1,55.5,68.7,73.2,16.6,16.3,18.8,22.8,36.6,38,5.5,5,26.1,18.9,29.9,24.1,5.2,6.1,0,19.5-8.9,17.2-3.6-.7-6.8-3.9-9.3-6.7-6.8-7.4-26.3-25-31.9-33.1-9.6-13-9-12.3-19.9-24.5-10.2-11.9-36.2-31.8-47.1-43.1-5-3-18.8-22.6-22.9-19.2-2.3,2.7-1.8,10.2-2.3,14.4-4,30.6-2.4,61.3-1.2,92,1.8,28.2-2.1,56.1-2.6,84.3,2.8,26.9-2.9,53.8-2.6,80.7-2.9,64.2,63.2,99.2,90.7,151,7.4,13.3,32.3,40.5,40,53.3,3.7,6.6-2.5,16.5-9.8,13.9-4.6-2.2-6-8-8.3-12.2-5-10.2-26.8-35.3-31.8-45.7-5.7-13-14.6-24.1-24.3-34.6-8-10.2-16.2-20.2-25.9-29-14.1-13.2-20.4-40.4-42.8-42.1-16.5,1.8-25.7,18.8-36.6,29.3-28.5,27.1-50.1,60-76.8,88.8-4,5.1-7.8,10.3-11.4,15.6-6.5,9.9-8.7,20.9-18.6,27.7-8.4,6.4-17.9.3-10.2-8.4,18.3-15.8,32-36.9,47.3-55.2,14.6-16.3,26.6-34.4,41.2-50.7,16-19,35.7-34.7,49.8-55.1,21.4-31.9,17.4-60,18.5-95.7,1.1-13.9,3.6-28.4,2.9-42.7-1.1-19.1.3-38.2,2.2-57.2-.6-28.5-2.3-57,0-85.5,1.1-9.8,2.2-19.8,1.8-29.7,0-10.9-2-23.5-14.4-13.3-12.8,9.4-23.5,20.5-34.8,31.4-19.8,15.9-34,37.1-52.4,54.2-11.3,12.1-24.9,22.7-33.9,36.7-4.1,6.1-8.5,12.6-15.7,15.4-10.2,4.3-14.7-5.1-7.9-12.5,8.2-9.5,19.7-15.1,29.2-23.7,24.5-25.2,48.6-50.8,73.5-75.6,11.2-12.7,26.8-20.9,36.9-34.6,9.4-11.4,19.1-22.6,19.9-37.6,1.2-19.1-1.1-38.5-.3-57.5,0-19.8,3.7-39,5.9-58.5,1.5-6.8-.4-27.4,6.7-23.3l.2.2h0Z"/>
  <path d="M394.5,225.8c-3.8-1.9-6.7-4.8-11.9-5.5-11.1-.9-23.7,1.1-34.7,1.5-25.2,0-50.9-1.9-75.7-5-8.7-1.4-17.9.5-26.4-.9-15.5-5.1,1.3-19.1,6-26.3,3.5-4.9,6.5-10,9.9-14.9,13.3-17.8,26.1-36,41.7-52.8,13.6-16.3,25.6-33.2,38.7-49.7,14.3-19.1,30-37.9,45.8-56.3C392.9,10.6,398.1.8,406.7,0c3.7,0,7.3,3.7,9.2,6.7,12.3,17.5,25.4,34.7,36.3,53,11.8,15.2,22.2,31.1,33.3,46.6,6.9,10.1,14.8,19.9,21,30.2,7.7,12.1,17.2,23.6,25.2,35.5,7.2,8.5,15.8,15.8,19.9,25.7,4.4,8.5,7.5,23.1-5.7,26.7-7.5,1.1-15.1-1.5-22.9-1.8-6.7-.4-13.5-.6-20.3-.6-30,.4-60.3,0-90,.6-6.3.1-12.6,5.7-17.9,3.5h-.3c0-.1,0-.2,0-.2ZM405.7,13.4c-2.8-.5-6.2,3.1-8.1,5.4-6.7,7.9-15.1,15.6-21.8,23.6-5.4,6.3-9.5,13-15,19.3-6.3,7-11.6,14.6-17,21.9-10.6,12.3-20.5,24.8-30.5,37.5-13,15.2-25.6,30.7-36.7,47-4.9,7.4-10.3,14.5-15,21.8-4.2,7-10.1,17.4,4.3,18.1,23.9,1.4,47.6,3.6,71,4.6,20.6.2,41.4-.7,62-1.4,15.1-.8,29.8,3.6,45.1,2.5,28.5-2.1,57,.1,85.6-1,17.1-1.4,10.2-12.4,4.1-20.2-5.2-6.9-8.7-14.1-13.3-21.3-6.9-10.3-14.8-20.4-22.1-30.5-6.3-9.4-11-19.8-18.7-28.7-13.4-16.6-23.4-35.1-36.3-52.1-10.6-13.9-17.8-29.4-30.8-41.9-2.2-2.3-4.4-4.1-6.4-4.4h-.3s0,0,0,0Z"/>
  <path d="M378.4,1114.2c-34.6,1.3-65.6-30.4-65.4-65.5-.6-35.2,26.8-67.5,65.2-67.7,31.4-.6,59,22.9,64.7,53.5,8.5,40.2-23.3,80.9-64.5,79.7h0ZM378.8,986.9c-30.4-.1-56.5,23.1-59.5,53.8-4.4,38.3,26.6,70.2,62.8,67.7,22.6-1,43.1-16,51.6-36.8,16.6-39.1-11.5-84.7-54.7-84.7h0,0Z"/>
  <path d="M384.3,1005.9c.6.1.7.4.7,1v37.3c0,.5-.1.9-.8,1-5.4.7-6.8-1.2-6.6-6.5,0-2.6,0-5.2,0-7.9-.1-1.7.5-7.2-.8-7.9-1.2-.2-2.2,2.9-2.9,4.1-1.1,2.2-2.2,4.4-3.2,6.7-1.4,2.5-2.1,6.2-5.2,7.1-1.9.4-4.3.5-6-.6-1.5-1-2.3-2.8-3-4.4-2.9-6.3-6-12.4-9.1-18.6-.6-1.3-1.7-2.6-2.9-1.3-11.4,11.3-18.2,41.6.4,64.7,2.2,2.9,1.5,4.2-1,6.5-1.8,1.9-3.3,1.9-5.1-.3-18.6-21.3-19.2-53.8-1.7-76.2,2.1-3.2,5.9-5.3,9.7-5.2,2.3,0,3.8,1.8,4.7,3.7,3.3,6.5,6.5,13.3,9.7,19.8.5.8,1,2.6,2.2,2.3,1.3-.7,1.8-2.7,2.5-4,1.4-2.9,2.8-5.7,4.2-8.6,1.1-2.1,2.1-4.3,3.1-6.4,2.7-6.5,3.8-7.1,11-6.5h0Z"/>
  <path d="M411.4,1011.7c0-.9.8-1.7,1.4-2.4,1.8-2,3.4-3.8,5.5-1.4,19.9,21.3,20.2,59.9-1.3,80.4-2,1.1-5-2.6-5.4-4.1-.3-1.8,1.4-3.8,2.6-5.5,1.6-2.2,3.7-5.6,4.8-7.7.3-.7,0-.8-.5-.8h-32.6c-1-.1-.8.9-.8,2.1v13.5c0,.4,0,.7-.2,1-.3.4-1,.4-1.5.4-1.2,0-3.2,0-4.3,0-.7,0-1.5,0-1.4-.8.2-4.8-.5-33,.2-38.3.4-.2,1-.2,1.5-.2,1.2,0,3,0,4,0,.4,0,.9.1,1.2.4.2.3.2.7.2,1.1.1,2.6-.1,8.4.1,11.6.2,1.6,2.3,1.2,3.6,1.3,9.4,0,18.4,0,27.8-.2,1.5,0,3.1,0,4.4-.5,2.3-.9,2.7-3.8,3-6,2.4-15.7-1.9-29.8-11.8-41.9-.5-.7-.8-1.4-.7-2h0c0,0,0,0,0,0Z"/>
  <path d="M399,1040.3c0-3.2,3.2-5.4,6.1-4.2,4.5,1.9,3.1,8.6-1.6,8.8-2.4,0-4.5-2.2-4.5-4.6h0c0,0,0,0,0,0Z"/>
  <path d="M357.1,1058.5c0,3.1-3.2,5-6,3.8-3.3-1.3-3.8-6.3-.5-7.9,3.1-1.6,6.6.5,6.5,4.1h0q0,0,0,0Z"/>
</svg>